<svg xmlns="http://www.w3.org/2000/svg"><symbol id="sensei-sprite-alert" viewBox="0 0 24 24"><path d="M13 7h-2v6h2V7zm0 8h-2v2h2v-2z"/><path d="M12 4.75a7.25 7.25 0 1 0 0 14.5 7.25 7.25 0 0 0 0-14.5zM3.25 12a8.75 8.75 0 1 1 17.5 0 8.75 8.75 0 0 1-17.5 0z"/></symbol><symbol id="sensei-sprite-buttons" viewBox="0 0 24 24"><path d="M17 3H7c-1.1 0-2 .9-2 2v4c0 1.1.9 2 2 2h10c1.1 0 2-.9 2-2V5c0-1.1-.9-2-2-2zm.5 6c0 .3-.2.5-.5.5H7c-.3 0-.5-.2-.5-.5V5c0-.3.2-.5.5-.5h10c.3 0 .5.2.5.5v4zm-8-1.2h5V6.2h-5v1.6zM17 13H7c-1.1 0-2 .9-2 2v4c0 1.1.9 2 2 2h10c1.1 0 2-.9 2-2v-4c0-1.1-.9-2-2-2zm.5 6c0 .3-.2.5-.5.5H7c-.3 0-.5-.2-.5-.5v-4c0-.3.2-.5.5-.5h10c.3 0 .5.2.5.5v4zm-8-1.2h5v-1.5h-5v1.5z" fill="currentColor"/></symbol><symbol fill="none" id="sensei-sprite-check-circle" viewBox="0 0 24 24"><path fill-rule="evenodd" clip-rule="evenodd" d="M12 23.486c6.343 0 11.486-5.143 11.486-11.486C23.486 5.657 18.343.514 12 .514 5.657.514.514 5.657.514 12c0 6.343 5.143 11.486 11.486 11.486ZM12 24c6.627 0 12-5.373 12-12S18.627 0 12 0 0 5.373 0 12s5.373 12 12 12Z" fill="currentColor"/><path fill-rule="evenodd" clip-rule="evenodd" d="m15.77 8.862-4.91 6.602-3.003-2.233.41-.55 2.452 1.824 4.5-6.052.55.409Z" fill="currentColor"/></symbol><symbol fill="none" id="sensei-sprite-check-filled-circle" viewBox="0 0 24 24"><path fill-rule="evenodd" clip-rule="evenodd" d="M12 24c6.628 0 12-5.372 12-12 0-6.627-5.372-12-12-12C5.373 0 0 5.373 0 12c0 6.628 5.373 12 12 12Zm-1.536-5.924 8.647-11.629-1.204-.895-8.2 11.027-4.411-3.28-.895 1.204 5.014 3.728.602.447.447-.602Z" fill="currentColor"/></symbol><symbol id="sensei-sprite-checked-white" viewBox="0 0 16 12"><path d="M5.75 11.56.72 6.53l1.06-1.06 3.97 3.97L14.22.97l1.06 1.06" fill="#fff"/></symbol><symbol id="sensei-sprite-checked" viewBox="0 0 24 24"><path d="M9 18.6 3.5 13l1-1L9 16.4l9.5-9.9 1 1z" fill="currentColor"/></symbol><symbol fill="none" id="sensei-sprite-chevron-left" viewBox="0 0 24 24"><path d="m14 7-5 5.5 5 5.5" stroke="currentColor" stroke-width="1.5"/></symbol><symbol fill="none" id="sensei-sprite-chevron-right" viewBox="0 0 24 24"><path d="m10 7 5 5.5-5 5.5" stroke="currentColor" stroke-width="1.5"/></symbol><symbol id="sensei-sprite-chevron-up" viewBox="0 0 24 24"><path d="M6.5 12.4 12 8l5.5 4.4-.9 1.2L12 10l-4.5 3.6-1-1.2z" fill="currentColor"/></symbol><symbol fill="none" id="sensei-sprite-circle" viewBox="0 0 24 24"><path fill-rule="evenodd" clip-rule="evenodd" d="M12 1.5C6.201 1.5 1.5 6.201 1.5 12S6.201 22.5 12 22.5 22.5 17.799 22.5 12 17.799 1.5 12 1.5ZM0 12C0 5.373 5.373 0 12 0s12 5.373 12 12-5.373 12-12 12S0 18.627 0 12Z" fill="currentColor"/></symbol><symbol fill="none" id="sensei-sprite-close" viewBox="0 0 24 24"><path d="M1 23 22.364 1M1.636 1 23 23 1.636 1Z" stroke="currentColor" stroke-width="1.5"/></symbol><symbol id="sensei-sprite-cog" viewBox="0 0 24 24"><path fill-rule="evenodd" clip-rule="evenodd" d="M11.929 18.5a6 6 0 1 0 0-12 6 6 0 0 0 0 12Zm0-3a3 3 0 1 0 0-6 3 3 0 0 0 0 6Z" fill="currentColor"/><path fill-rule="evenodd" clip-rule="evenodd" d="M11.276 4.5a1 1 0 0 0-.987.836L9.93 7.5h4l-.361-2.164a1 1 0 0 0-.986-.836h-1.306Zm1.306 16a1 1 0 0 0 .986-.836l.36-2.164h-4l.361 2.164a1 1 0 0 0 .987.836h1.306ZM18.53 7.934a1 1 0 0 0-1.217-.436l-2.055.77 2 3.464 1.694-1.395a1 1 0 0 0 .23-1.272l-.652-1.13ZM5.326 17.065a1 1 0 0 0 1.217.436l2.055-.77-2-3.463-1.694 1.394a1 1 0 0 0-.23 1.272l.652 1.131Zm-.651-7.999a1 1 0 0 0 .23 1.272l1.694 1.394 2-3.464-2.055-.77a1 1 0 0 0-1.217.437l-.652 1.13Zm14.509 6.869a1 1 0 0 0-.23-1.272l-1.695-1.395-2 3.464 2.055.77a1 1 0 0 0 1.217-.436l.653-1.131Z" fill="currentColor"/></symbol><symbol id="sensei-sprite-conditional-content" viewBox="0 0 24 24"><path d="M5.5 18V6a.5.5 0 0 1 .5-.5h4.5V4H6a2 2 0 0 0-2 2v12a2 2 0 0 0 2 2h4.5v-1.5H6a.5.5 0 0 1-.5-.5zm11-14v1.5H15V4h1.5zM20 6a2 2 0 0 0-2-2v1.5a.5.5 0 0 1 .5.5H20zm-1.5 10.5v-2H20v2h-1.5zM20 13h-1.5v-2H20v2zm-2 5.5a.5.5 0 0 0 .5-.5H20a2 2 0 0 1-2 2v-1.5zM16.5 20v-1.5H15V20h1.5zm2-10.5H20v-2h-1.5v2zm-5-5.5v1.5H12V4h1.5zm0 14.5V20H12v-1.5h1.5z"/></symbol><symbol id="sensei-sprite-course" viewBox="0 0 24 24"><path d="M20 16V4H4v12h16z"/><path d="M18.5 5.5v9h-13v-9h13zM20 16H4V4h16v12zM6 20h2.222L11 16H8.778L6 20zm12 0h-2.222L13 16h2.222L18 20z"/></symbol><symbol fill="none" id="sensei-sprite-double-chevron-right" viewBox="0 0 24 24"><path fill-rule="evenodd" clip-rule="evenodd" d="M13.148 23.875 24 11.938 13.148 0 10.94 2.006l9.029 9.932-9.03 9.931 2.208 2.006Z" fill="currentColor"/><path fill-rule="evenodd" clip-rule="evenodd" d="m3.207 23.875 10.852-11.937L3.207 0 1 2.006l9.029 9.932L1 21.869l2.207 2.006Z" fill="currentColor"/></symbol><symbol fill="none" id="sensei-sprite-external-link" viewBox="0 0 16 16"><path d="M6.833 3.333H4.667c-.737 0-1.334.597-1.334 1.334v6.667c0 .736.597 1.333 1.334 1.333h6.666c.737 0 1.334-.597 1.334-1.333V8.908M9.93 2.524l3.698-.016m0 0-.031 3.683m.031-3.683-5.12 5.12" stroke="currentColor"/></symbol><symbol fill="none" id="sensei-sprite-eye" viewBox="0 0 24 24"><path fill-rule="evenodd" d="M0 12.5c1.887-5.268 6.546-9 12-9s10.113 3.732 12 9c-1.887 5.268-6.546 9-12 9s-10.113-3.732-12-9zm21.623 0c-1.8-4.044-5.487-6.6-9.622-6.6s-7.822 2.556-9.622 6.6c1.8 4.044 5.487 6.6 9.623 6.6s7.823-2.556 9.622-6.6zM12 9.5c1.506 0 2.727 1.344 2.727 3s-1.223 3-2.727 3-2.727-1.344-2.727-3 1.223-3 2.727-3zm-4.909 3c0-2.976 2.204-5.4 4.91-5.4s4.91 2.424 4.91 5.4-2.204 5.4-4.91 5.4-4.909-2.424-4.909-5.4z" fill="currentColor"/></symbol><symbol fill="none" id="sensei-sprite-half-filled-circle" viewBox="0 0 24 24"><path fill-rule="evenodd" d="M12 1.5C6.201 1.5 1.5 6.201 1.5 12S6.201 22.5 12 22.5 22.5 17.799 22.5 12 17.799 1.5 12 1.5zM0 12C0 5.373 5.373 0 12 0s12 5.373 12 12-5.373 12-12 12S0 18.627 0 12z" fill="currentColor"/><path d="M0 12a12 12 0 0 0 12 12 12 12 0 0 0 12-12" fill="currentColor"/></symbol><symbol fill="none" id="sensei-sprite-learner-courses" viewBox="0 0 24 24"><path stroke="currentColor" fill="transparent" stroke-width="1.5" d="M19.25 14.75v-10H4.75v10z"/><path fill="currentColor" fill-rule="evenodd" clip-rule="evenodd" d="M8 12h8V8H8v4Zm-.779 7.862 3.558-4.991L9.558 14 6 18.99l1.221.872Zm9.337 0L13 14.87l1.222-.87 3.557 4.99-1.221.872Z"/></symbol><symbol id="sensei-sprite-lesson-properties" viewBox="0 0 24 24"><path d="M16.181 17.381a7.61 7.61 0 0 1-2.13.133L15.778 20H18l-1.819-2.619zm-5.479-.953a7.712 7.712 0 0 1-2.12-1.928H5.5v-9h2.759A7.793 7.793 0 0 1 9.523 4H4v12h4.778L6 20h2.222l2.48-3.572zm4.839-7.484h-1.5v3.997h1.5V8.944zm0-1h-1.5V6.55h1.5v1.395z"/><path d="M20.79 9.768c0 3.425-2.714 6.269-6.145 6.269-3.43 0-6.145-2.844-6.145-6.269 0-3.424 2.714-6.268 6.145-6.268 3.43 0 6.145 2.844 6.145 6.268zm-6.145 4.769c2.565 0 4.645-2.135 4.645-4.769C19.29 7.135 17.21 5 14.645 5 12.08 5 10 7.135 10 9.768c0 2.634 2.08 4.769 4.645 4.769z"/></symbol><symbol id="sensei-sprite-lesson" viewBox="0 0 24 24"><path d="M4 4v12h4.777L6 20h2.223L11 16h2l2.777 4H18l-2.777-4H20V4zm1.5 1.5h13v9h-13zM9 8v1.5h6V8zm0 3v1.5h6V11z" clip-rule="evenodd" fill-rule="evenodd"/></symbol><symbol fill="none" id="sensei-sprite-lock" viewBox="0 0 24 24"><path fill-rule="evenodd" clip-rule="evenodd" d="M19.125 8h-1.188V5.714C17.938 2.56 15.277 0 12 0S6.062 2.56 6.062 5.714V8H4.875C3.569 8 2.5 9.029 2.5 10.286v11.428C2.5 22.971 3.569 24 4.875 24h14.25c1.306 0 2.375-1.029 2.375-2.286V10.286C21.5 9.029 20.431 8 19.125 8ZM8.438 5.714c0-1.897 1.59-3.428 3.562-3.428 1.971 0 3.563 1.531 3.563 3.428V8H8.438V5.714Zm-3.563 16h14.25V10.286H4.875v11.428Z" fill="currentColor"/></symbol><symbol fill="none" id="sensei-sprite-logo-tree" viewBox="0 0 36 36"><circle cx="18" cy="18" r="18" fill="#43AF99"/><path fill-rule="evenodd" clip-rule="evenodd" d="M14.855 23.025c.422-.349.251-.718.844-.854-.026.294.206.593.354.854-.153-.557-.003-.813.112-1.092.49-1.192-.932-1.962-1.902-2.15.332-.25.563-.498.979-.54a3.148 3.148 0 0 0-1.491.35c-1.566.805-2.807-.795-1.987-2.246.438-.775.937-.788 1.385-1.313.107.27.144.564.105.856.14-.32.163-.677.068-1.008-.146-.51-.564-.513-.642-1.246-.016-.153-.148.086-.37-.116-.053-.05-.16-.136-.23-.097-.12.067-.254.012-.326.05-.118.064-.154-.068-.283.025-.226.163-.25-.02-.467.009-.273.034-.451.396-.606.217-.143-.163-.29.115-.393.115-.072 0-.44.48-.602.042-.121-.328-.393.312-.538.095-.046-.069-.173.164-.254-.066-.018-.053.002-.119-.15-.042-.304.15-.196-.091-.293-.218-.117-.156-.16-.156-.096-.41.05-.2-.027-.5.282-.552.078-.013.15-.007.259-.224.135-.272.326-.142.292-.266-.05-.18.201-.424.318-.539.155-.155.359-.382.43-.6a.958.958 0 0 1 .145-.214c.114-.127.149-.005.32-.068.124-.046.027.08.15-.105.039-.06.146-.004.266-.06.365-.17.399-.168.49-.564.017-.075.034-.133.111-.125.155.015.19-.079.284-.077.085.003.116-.045.16-.102.253-.329.392-.084.504-.11.086-.019.031-.216.26-.154.324.087.218-.078.427-.024.245.063.262.288.43.342.202.064.298.3.433.298.474-.008.33.348.63.489-.225-.244.018-.638-.495-.69-.114-.01-.154-.192-.324-.277-.206-.102-.184-.32-.555-.41.095-.062.125.008.183-.11.082-.168.128-.07.16-.173.029-.095.007-.149.232-.235.233-.09.457-.296.665-.285.183.01.26-.121.249-.287-.011-.17-.046-.406.313-.334.216.043.212.004.21-.152-.001-.156.057-.25.246-.244.138.005.274-.003.326-.177.04-.138.292-.173.426-.225.446-.173.508.076.63-.143.099-.178.274-.482.473-.266.04.044.077.076.21-.085.113-.134.381-.303.477-.072.038.09.121.184.194.066a.114.114 0 0 1 .075-.059c.071-.016.11-.037.147-.054.307-.155.441-.144.3.19-.201.48 1.115-.293.75.228-.135.19.756.3.886.386.072.048.069.089.203.116.383.075.377.04.4.368.01.15.152.066.152.256 0 .811.664.403.772.605.018.034.045.064.112.064.21 0 .22-.044.316.134.038.073.07.11.179.146.168.056.158.077.095.21-.076.157.043.155.195.17.14.014.208.095.304.209.156.185.4.238.606.345.118.06.002.211.2.369.147.116.222.1.024.25-.832.634.31.462.628 1.052.072.132.167.297.304.449.318.348.14.444.312.662.099.126.021.096.183.208.383.266-.148.443-.449.322-.137-.054-.234-.13-.207-.039.021.074-.016.126-.074.183-.175.17.173.104.256.09.254-.038.934-.115.93.142-.008.334.191.41.352.431.26.037.334.086.477.342.13.23.206.107.407.312.137.14.306.39.028.427-.067.009-.14.001-.17.026a.56.56 0 0 1-.196.1c-.417.137.196.207.346.172.132-.03.295-.075.422-.04.08.022.089.12.345.162.085.014.05.149.008.243-.147.324.27.152.226.398-.025.142.154.371-.095.376-.08.002-.164-.022-.162.051.005.16-.233-.044-.446.176-.08.082-.268.139-.384-.014-.045-.058-.099-.105-.306-.034-.204.069-.342.308-.432-.062-.024-.097-.07-.099-.2-.146-.176-.066-.16-.393-.419-.182a.318.318 0 0 1-.301.058c-.203-.055-.427.018-.446-.145a.51.51 0 0 0-.532-.45c-.207.012-.39.051-.5-.207.081.296.291.315.538.315.204 0 .324.114.36.342.063.401.287.15.572.338.14.092.24.24.297.414.058.179.521-.036.396.392-.053.184-.15.254-.341.403-.565.445-.705.006-.871.362-.086.185-.09.048-.276.138-.31.148-.508-.195-.735-.07-.257.144-.236-.121-.496.057-.215.147-.433-.112-.537.291-.088.344-.452.352-.619.167-.265-.294-.186.347-.51.083-.172-.139-.3.064-.552.068-.465.007-.688-.428-.915-.163-.27.313-.467-.048-.471-.368-.004-.326-1.095-.217-1.669-.388-.317-.093-1.314.02-.99-.53-.523.592.644.555.961.69.191.08.346.145.531.173.183.449.302.935.32 1.528a3.43 3.43 0 0 0 .04-.985c-.06-.581.34.289.389.413.259.684-.031 1.938-.687 2.315a4.585 4.585 0 0 0-.793-1.502c.36.594.869 1.808.462 2.503a1.48 1.48 0 0 1-.774-.732c.107.505.58 1.065 1.15.88.997-.323.992.353 2.313.465.96.17 2.33 0 2.984.057.357.03 1.858.298 1.852.704-.027 1.678-.617 1.766-2.168 1.925a38.34 38.34 0 0 1-2.568.168 88.093 88.093 0 0 1-6.858-.003c-1.02-.044-1.511-.053-2.594-.206s-1.677-.551-1.66-1.802c.007-.461 1.276-.901 1.69-.952.49-.06 1.27.008 1.98-.176.742-.192 1.053-.32 1.6-.771Zm7.532-9.181c-.236-.064-.072-.21-.477-.022-.24.111-.273-.197-.515-.142-.242.054-.341-.19-.702-.252-.448-.078-.125-.202-.835-.049-.137.029-.252-.137-.678-.078-.499.069-.324.127-.626-.175-.383-.382-.687-.125-1.08-.28.303.253.517.029.876.336-.34.209-.738 1.217-1.356 1.28.673.163.999.537 1.617.627.71.102 1.243.178 1.622.805.425.702.62.298 1.232.255.387-.026.397-.28.46-.55.09-.37.18-.388.439-.437.3-.057.229-.14.15-.237-.212-.26.026-.314.206-.37.313-.098.06-.114.06-.253-.393-.135-.09-.328.128-.413.238.158.341.132.447.11.153-.032.255.046.385-.043-.191.023-.23-.055-.391-.03-.073.01-.16.016-.31-.08-.252-.164-.38.07-.652-.002Zm-3.212 2.487-1.537-.827c-1.853-.996-2.697.475-3.292 2.088l-1.078 1.107c.773-.512 1.404-1.083 2.217-1.078.13.001 2.136.736 1.813-.138-.058-.158.125-.08.176-.306.056-.258.076-.213.274-.049.125.104.297.172.245-.073-.024-.11-.056-.207.394-.006.213.095.134-.097.427-.136.409-.053.322-.471.514-.53.106-.033.214.087.415-.116.07-.07.154-.136.327-.088-.201-.11-.31-.02-.412.046-.206.135-.287-.055-.483.106Zm-3.141-2.918c.225-.03.45-.054.678-.07a.187.187 0 0 0 .105-.089.18.18 0 0 0 .01-.136.408.408 0 0 1 .206-.315l-.002-.004c-.363.002-.657.15-1.028.32-.074.034-.035.17-.167.323a.387.387 0 0 1-.284.356.188.188 0 0 0-.126.07.18.18 0 0 0-.037.14.337.337 0 0 1-.39.094c-.281-.118-.491-.1-.63.054a.516.516 0 0 1 .56.021c.189.1.422.047.55-.124a.19.19 0 0 1 .177-.15c.2-.08.325-.244.378-.49Z" fill="#fff"/></symbol><symbol id="sensei-sprite-menu" viewBox="0 0 24 24"><path d="M5 5v1.5h14V5H5zm0 7.8h14v-1.5H5v1.5zM5 19h14v-1.5H5V19z" fill="currentColor"/></symbol><symbol id="sensei-sprite-module" viewBox="0 0 24 24"><path fill-rule="evenodd" clip-rule="evenodd" d="M18.5 5.5v9h-13v-9h13zM20 16H4V4h16v12z"/><path fill-rule="evenodd" clip-rule="evenodd" d="M9 12h6V8H9v4zm-3 8h2.222L11 16H8.778L6 20zm12 0h-2.222L13 16h2.222L18 20z"/></symbol><symbol id="sensei-sprite-progress" viewBox="0 0 24 24"><rect x="2.75" y="7.75" width="18.5" height="6.5" rx="3.25" stroke="currentColor" stroke-width="1.5" fill="none"/><path d="M6 7.75h10.7l-6.5 6.5H6c-1.8 0-3.25-1.45-3.25-3.25S4.2 7.75 6 7.75Z"/></symbol><symbol id="sensei-sprite-question" viewBox="0 0 24 24"><path d="M12.408 7.277A2.999 2.999 0 0 0 9 10.25h1.5c0-.677.375-1.14.886-1.37.512-.228 1.11-.198 1.614.253.504.45.6 1.04.43 1.574-.171.534-.592.958-1.264 1.033l.021-.002a1.034 1.034 0 0 0-.937.99V14h1.5v-.95c1.02-.28 1.817-.979 2.107-1.888a2.998 2.998 0 0 0-2.449-3.885z"/><path d="M6 4c-1.096 0-2 .904-2 2v12c0 1.096.904 2 2 2h12c1.096 0 2-.904 2-2V6c0-1.096-.904-2-2-2H6zm0 1.5h12c.284 0 .5.216.5.5v12a.49.49 0 0 1-.5.5H6a.49.49 0 0 1-.5-.5V6c0-.284.216-.5.5-.5zm5.25 9.5v1.5h1.5V15h-1.5z"/></symbol><symbol fill="none" id="sensei-sprite-quiz" viewBox="0 0 24 24"><path fill="transparent" stroke="currentColor" stroke-width="1.5" d="M21 8v11c0 1.105-.894 2-1.999 2H6"/><rect x="3.75" y="3.75" width="13.5" height="13.5" rx=".875" stroke="currentColor" stroke-width="1.5" fill="transparent"/><path fill="currentColor" fill-rule="evenodd" clip-rule="evenodd" d="M12 9a1.5 1.5 0 0 0-3 0H7.5a3 3 0 1 1 3.75 2.905v.845h-1.5V11.5c0-.57.452-.958.917-1.01A1.5 1.5 0 0 0 12 9Zm-2.25 4.75v1.5h1.5v-1.5h-1.5Z"/></symbol><symbol fill="none" id="sensei-sprite-sensei" viewBox="0 0 24 24"><path d="M12 24a12 12 0 1 0 0-24 12 12 0 0 0 0 24Zm-.1-4.723c-2.849 0-4.517-1.072-4.575-3.011 0-.203 0-.405.029-.608 1.208 1.013 2.733 1.65 4.603 1.65 1.64 0 2.733-.695 2.733-1.708 0-.608-.978-.897-2.244-1.274-2.33-.752-5.553-1.736-5.553-5.181 0-2.721 1.957-4.458 5.323-4.458 2.905 0 4.66 1.042 4.689 3.242v.376c-1.496-1.187-3.107-1.794-4.862-1.794-1.64 0-2.848.636-2.848 1.592 0 .55.978.868 2.244 1.273 2.33.753 5.667 1.824 5.667 5.24 0 2.808-2.186 4.66-5.207 4.66Z" fill="currentColor"/></symbol><symbol id="sensei-sprite-update" viewBox="0 0 24 24"><path fill-rule="evenodd" clip-rule="evenodd" d="m7.622 18.42-.634.433.406.598 2.78 4.102 1.268-.866-1.748-2.579c2.978.999 6.425.147 8.636-2.415 2.449-2.836 2.599-6.863.601-9.763l-1.026 1.188c1.4 2.325 1.203 5.408-.697 7.608-1.861 2.157-4.801 2.822-7.278 1.869l2.029-1.385.64-.438-.81-1.197-.641.438-3.526 2.407Zm8.813-12.424.634-.433-.405-.598-2.78-4.102-1.27.866 1.75 2.58c-2.979-1-6.426-.148-8.637 2.414-2.449 2.837-2.599 6.863-.601 9.763l1.026-1.188c-1.4-2.325-1.203-5.408.697-7.608 1.861-2.157 4.801-2.822 7.278-1.868l-2.029 1.384-.64.438.81 1.197.641-.438 3.526-2.407Z" fill="currentColor"/></symbol></svg>